<?xml version="1.0" encoding="UTF-8" standalone="no"?>
<!DOCTYPE svg PUBLIC "-//W3C//DTD SVG 1.1//EN" "http://www.w3.org/Graphics/SVG/1.1/DTD/svg11.dtd">
<svg width="100%" height="100%" viewBox="0 0 32 32" version="1.1" xmlns="http://www.w3.org/2000/svg" xmlns:xlink="http://www.w3.org/1999/xlink" xml:space="preserve" xmlns:serif="http://www.serif.com/" style="fill-rule:evenodd;clip-rule:evenodd;stroke-linejoin:round;stroke-miterlimit:2;">
    <path d="M32,6.285l0,19.429c0,3.469 -2.816,6.285 -6.285,6.285l-19.429,0c-3.469,0 -6.285,-2.816 -6.285,-6.285l0,-19.429c0,-3.469 2.816,-6.285 6.285,-6.285l19.429,0c3.469,0 6.285,2.816 6.285,6.285Z" style="fill:rgb(255,250,237);"/>
    <g transform="matrix(1,0,0,1,-7,11)">
        <g transform="matrix(21,0,0,21,4.534787,12.083056)">
            <path d="M0.698,-0.546c-0.072,0.194 -0.136,0.376 -0.192,0.546l-0.313,-0c-0.06,-0.182 -0.124,-0.364 -0.193,-0.546l0.235,0l0.116,0.412l0.115,-0.412l0.232,0Z" style="fill-rule:nonzero;"/>
        </g>
        <g transform="matrix(21,0,0,21,19.192787,12.083056)">
            <path d="M0.275,-0.4c-0.001,0.04 -0.001,0.101 -0.001,0.184c0,0.099 0.001,0.171 0.002,0.216l-0.236,-0l0.001,-0.113c0.001,-0.124 0.002,-0.22 0.002,-0.287c0,-0.064 -0.001,-0.155 -0.002,-0.272l-0.001,-0.108l0.236,0c-0.001,0.095 -0.002,0.172 -0.002,0.232c0,0.067 0,0.116 0.001,0.148Z" style="fill-rule:nonzero;"/>
        </g>
        <g transform="matrix(21,0,0,21,25.618787,12.083056)">
            <path d="M0.512,-0.546l0.192,0c-0.003,0.109 -0.005,0.265 -0.005,0.466c0,0.079 -0.016,0.144 -0.048,0.195c-0.032,0.051 -0.074,0.088 -0.125,0.111c-0.052,0.023 -0.11,0.035 -0.174,0.035c-0.063,0 -0.12,-0.009 -0.17,-0.027c-0.05,-0.018 -0.088,-0.043 -0.114,-0.074l0.045,-0.153c0.036,0.021 0.07,0.035 0.102,0.044c0.032,0.009 0.065,0.013 0.1,0.013c0.113,0 0.17,-0.048 0.17,-0.144c0,-0.014 0,-0.024 0.001,-0.03c0,-0.004 0,-0.009 0.001,-0.016c0,-0.007 0,-0.015 -0.001,-0.026c-0.034,0.095 -0.106,0.142 -0.216,0.142c-0.045,0 -0.085,-0.012 -0.12,-0.036c-0.035,-0.024 -0.062,-0.056 -0.081,-0.098c-0.019,-0.041 -0.029,-0.086 -0.029,-0.136c0,-0.051 0.01,-0.097 0.029,-0.139c0.019,-0.042 0.046,-0.076 0.081,-0.101c0.035,-0.025 0.074,-0.037 0.117,-0.037c0.113,0 0.186,0.04 0.22,0.119l0.025,-0.109Zm-0.138,0.376c0.015,0 0.031,-0.003 0.048,-0.01c0.017,-0.007 0.031,-0.018 0.043,-0.034c0.012,-0.016 0.018,-0.035 0.018,-0.059c-0,-0.041 -0.009,-0.071 -0.028,-0.088c-0.019,-0.018 -0.046,-0.027 -0.083,-0.027c-0.032,-0 -0.057,0.011 -0.076,0.032c-0.019,0.021 -0.028,0.049 -0.028,0.083c0,0.031 0.01,0.055 0.03,0.075c0.02,0.019 0.046,0.028 0.076,0.028Z" style="fill-rule:nonzero;"/>
        </g>
    </g>
</svg>
